<?xml version="1.0" encoding="UTF-8" standalone="no"?>
<!DOCTYPE svg PUBLIC "-//W3C//DTD SVG 1.1//EN"
 "http://www.w3.org/Graphics/SVG/1.1/DTD/svg11.dtd">
<!-- Generated by graphviz version 7.1.0 (20230121.1956)
 -->
<!-- Title: G Pages: 1 -->
<svg width="536pt" height="492pt"
 viewBox="0.00 0.00 536.00 492.00" xmlns="http://www.w3.org/2000/svg" xmlns:xlink="http://www.w3.org/1999/xlink">
<g id="graph0" class="graph" transform="scale(1 1) rotate(0) translate(4 488)">
<title>G</title>
<g id="clust7" class="cluster">
<title>clusterC1</title>
<polygon fill="none" stroke="#efc050" points="212,-8 212,-278 362,-278 362,-8 212,-8"/>
<text text-anchor="middle" x="287" y="-262.8" font-family="Times,serif" font-size="14.00" fill="#efc050">land&#45;component&#45;1</text>
</g>
<g id="clust8" class="cluster">
<title>clusterC2</title>
<polygon fill="none" stroke="#efc050" points="370,-95 370,-170 520,-170 520,-95 370,-95"/>
<text text-anchor="middle" x="445" y="-154.8" font-family="Times,serif" font-size="14.00" fill="#efc050">land&#45;component&#45;2</text>
</g>
<g id="clust1" class="cluster">
<title>clusterA</title>
<polygon fill="none" stroke="#efc050" points="8,-8 8,-278 204,-278 204,-8 8,-8"/>
<text text-anchor="middle" x="106" y="-262.8" font-family="Times,serif" font-size="14.00" fill="#efc050">land&#45;archetype</text>
</g>
<g id="clust4" class="cluster">
<title>clusterP</title>
<polygon fill="none" stroke="#efc050" points="123,-311 123,-476 299,-476 299,-311 123,-311"/>
<text text-anchor="middle" x="211" y="-460.8" font-family="Times,serif" font-size="14.00" fill="#efc050">land&#45;parent</text>
</g>
<!-- service -->
<g id="node1" class="node">
<title>service</title>
<polygon fill="none" stroke="black" points="74.5,-139 19.5,-139 19.5,-103 74.5,-103 74.5,-139"/>
<text text-anchor="middle" x="47" y="-117.3" font-family="Times,serif" font-size="14.00" fill="#c475db">service</text>
</g>
<!-- biz -->
<g id="node3" class="node">
<title>biz</title>
<polygon fill="none" stroke="black" points="192,-139 138,-139 138,-103 192,-103 192,-139"/>
<text text-anchor="middle" x="165" y="-117.3" font-family="Times,serif" font-size="14.00" fill="#c475db">biz</text>
</g>
<!-- service&#45;&gt;biz -->
<g id="edge2" class="edge">
<title>service&#45;&gt;biz</title>
<path fill="none" stroke="#a69fe0" d="M86.17,-121C103.04,-121 122.35,-121 137.64,-121"/>
<polygon fill="#a69fe0" stroke="#a69fe0" points="86.48,-117.5 76.48,-121 86.48,-124.5 86.48,-117.5"/>
<text text-anchor="middle" x="106.25" y="-127.8" font-family="Times,serif" font-size="14.00">depency</text>
</g>
<!-- landArchetypePom -->
<g id="node2" class="node">
<title>landArchetypePom</title>
<polygon fill="none" stroke="black" points="169,-247 43,-247 43,-211 169,-211 169,-247"/>
<text text-anchor="middle" x="106" y="-225.3" font-family="Times,serif" font-size="14.00" fill="#c475db">land&#45;archetype&#45;pom</text>
</g>
<!-- landArchetypePom&#45;&gt;service -->
<g id="edge1" class="edge">
<title>landArchetypePom&#45;&gt;service</title>
<path fill="none" stroke="#a69fe0" d="M90.93,-200.93C80.15,-181.55 65.95,-156.04 56.65,-139.34"/>
<polygon fill="#a69fe0" stroke="#a69fe0" points="87.86,-202.61 95.78,-209.65 93.98,-199.21 87.86,-202.61"/>
<text text-anchor="middle" x="109" y="-181.8" font-family="Times,serif" font-size="14.00">depency</text>
</g>
<!-- dao -->
<g id="node4" class="node">
<title>dao</title>
<polygon fill="none" stroke="black" points="70,-52 16,-52 16,-16 70,-16 70,-52"/>
<text text-anchor="middle" x="43" y="-30.3" font-family="Times,serif" font-size="14.00" fill="#c475db">dao</text>
</g>
<!-- biz&#45;&gt;dao -->
<g id="edge3" class="edge">
<title>biz&#45;&gt;dao</title>
<path fill="none" stroke="#a69fe0" d="M130.66,-96.07C110.71,-82.18 86.03,-64.98 67.95,-52.38"/>
<polygon fill="#a69fe0" stroke="#a69fe0" points="128.57,-98.88 138.78,-101.73 132.57,-93.14 128.57,-98.88"/>
<text text-anchor="middle" x="135" y="-73.8" font-family="Times,serif" font-size="14.00">depency</text>
</g>
<!-- api -->
<g id="node5" class="node">
<title>api</title>
<polygon fill="none" stroke="black" points="196,-52 142,-52 142,-16 196,-16 196,-52"/>
<text text-anchor="middle" x="169" y="-30.3" font-family="Times,serif" font-size="14.00" fill="#c475db">api</text>
</g>
<!-- dao&#45;&gt;api -->
<g id="edge4" class="edge">
<title>dao&#45;&gt;api</title>
<path fill="none" stroke="#a69fe0" d="M81.59,-34C101.03,-34 124.14,-34 141.71,-34"/>
<polygon fill="#a69fe0" stroke="#a69fe0" points="81.85,-30.5 71.85,-34 81.85,-37.5 81.85,-30.5"/>
<text text-anchor="middle" x="106" y="-40.8" font-family="Times,serif" font-size="14.00">depency</text>
</g>
<!-- springboot -->
<g id="node6" class="node">
<title>springboot</title>
<polygon fill="none" stroke="black" points="291,-445 131,-445 131,-392 291,-392 291,-445"/>
<text text-anchor="start" x="139" y="-429.8" font-family="Times,serif" font-size="14.00" fill="#c475db">org.springframework.boot</text>
<text text-anchor="start" x="139" y="-414.8" font-family="Times,serif" font-size="14.00" fill="#c475db">spring&#45;boot&#45;starter&#45;parent</text>
<text text-anchor="start" x="139" y="-399.8" font-family="Times,serif" font-size="14.00" fill="#c475db">2.7.9</text>
</g>
<!-- landParentPom -->
<g id="node7" class="node">
<title>landParentPom</title>
<polygon fill="none" stroke="black" points="264.5,-355 157.5,-355 157.5,-319 264.5,-319 264.5,-355"/>
<text text-anchor="middle" x="211" y="-333.3" font-family="Times,serif" font-size="14.00" fill="#c475db">land&#45;parent&#45;pom</text>
</g>
<!-- springboot&#45;&gt;landParentPom -->
<g id="edge5" class="edge">
<title>springboot&#45;&gt;landParentPom</title>
<path fill="none" stroke="#a69fe0" d="M211,-380.55C211,-371.72 211,-362.7 211,-355.26"/>
<polygon fill="#a69fe0" stroke="#a69fe0" points="207.5,-380.39 211,-390.39 214.5,-380.39 207.5,-380.39"/>
</g>
<!-- landParentPom&#45;&gt;landArchetypePom -->
<g id="edge6" class="edge">
<title>landParentPom&#45;&gt;landArchetypePom</title>
<path fill="none" stroke="#a69fe0" d="M186.03,-310.79C166.64,-291.22 140.26,-264.58 123.18,-247.34"/>
<polygon fill="#a69fe0" stroke="#a69fe0" points="183.54,-313.25 193.06,-317.89 188.51,-308.33 183.54,-313.25"/>
<text text-anchor="middle" x="193.5" y="-289.8" font-family="Times,serif" font-size="14.00">extend</text>
</g>
<!-- landComponentPom -->
<g id="node8" class="node">
<title>landComponentPom</title>
<polygon fill="none" stroke="black" points="354,-247 220,-247 220,-211 354,-211 354,-247"/>
<text text-anchor="middle" x="287" y="-225.3" font-family="Times,serif" font-size="14.00" fill="#c475db">land&#45;component&#45;pom</text>
</g>
<!-- landParentPom&#45;&gt;landComponentPom -->
<g id="edge7" class="edge">
<title>landParentPom&#45;&gt;landComponentPom</title>
<path fill="none" stroke="#a69fe0" d="M229.83,-309.73C243.79,-290.26 262.43,-264.27 274.57,-247.34"/>
<polygon fill="#a69fe0" stroke="#a69fe0" points="227.08,-307.57 224.09,-317.74 232.76,-311.65 227.08,-307.57"/>
<text text-anchor="middle" x="264.5" y="-289.8" font-family="Times,serif" font-size="14.00">extend</text>
</g>
<!-- landComponent1 -->
<g id="node9" class="node">
<title>landComponent1</title>
<polygon fill="none" stroke="black" points="354,-52 220,-52 220,-16 354,-16 354,-52"/>
<text text-anchor="middle" x="287" y="-30.3" font-family="Times,serif" font-size="14.00" fill="#c475db">land&#45;component&#45;1.jar</text>
</g>
<!-- landComponentPom&#45;&gt;landComponent1 -->
<g id="edge8" class="edge">
<title>landComponentPom&#45;&gt;landComponent1</title>
<path fill="none" stroke="#a69fe0" d="M287,-199.27C287,-158.61 287,-85.52 287,-52.29"/>
<polygon fill="#a69fe0" stroke="#a69fe0" points="283.5,-199.02 287,-209.02 290.5,-199.02 283.5,-199.02"/>
<text text-anchor="middle" x="305.5" y="-117.3" font-family="Times,serif" font-size="14.00">extend</text>
</g>
<!-- landComponent2 -->
<g id="node10" class="node">
<title>landComponent2</title>
<polygon fill="none" stroke="black" points="512,-139 378,-139 378,-103 512,-103 512,-139"/>
<text text-anchor="middle" x="445" y="-117.3" font-family="Times,serif" font-size="14.00" fill="#c475db">land&#45;component&#45;2.jar</text>
</g>
<!-- landComponentPom&#45;&gt;landComponent2 -->
<g id="edge9" class="edge">
<title>landComponentPom&#45;&gt;landComponent2</title>
<path fill="none" stroke="#a69fe0" d="M322.19,-204.39C351.51,-184.72 392.6,-157.16 419.01,-139.44"/>
<polygon fill="#a69fe0" stroke="#a69fe0" points="320.35,-201.41 313.99,-209.89 324.25,-207.23 320.35,-201.41"/>
<text text-anchor="middle" x="379.5" y="-181.8" font-family="Times,serif" font-size="14.00">extend</text>
</g>
</g>
</svg>
