<?xml version="1.0" encoding="UTF-8" standalone="no"?>
<!DOCTYPE svg PUBLIC "-//W3C//DTD SVG 1.1//EN"
 "http://www.w3.org/Graphics/SVG/1.1/DTD/svg11.dtd">
<!-- Generated by graphviz version 7.1.0 (20230121.1956)
 -->
<!-- Title: G Pages: 1 -->
<svg width="500pt" height="513pt"
 viewBox="0.00 0.00 500.00 513.00" xmlns="http://www.w3.org/2000/svg" xmlns:xlink="http://www.w3.org/1999/xlink">
<g id="graph0" class="graph" transform="scale(1 1) rotate(0) translate(4 509)">
<title>G</title>
<g id="clust1" class="cluster">
<title>clusterA</title>
<polygon fill="none" stroke="#efc050" points="8,-8 8,-299 204,-299 204,-8 8,-8"/>
<text text-anchor="middle" x="106" y="-283.8" font-family="Times,serif" font-size="14.00" fill="#efc050">land&#45;archetype</text>
</g>
<g id="clust4" class="cluster">
<title>clusterP</title>
<polygon fill="none" stroke="#efc050" points="123,-332 123,-497 299,-497 299,-332 123,-332"/>
<text text-anchor="middle" x="211" y="-481.8" font-family="Times,serif" font-size="14.00" fill="#efc050">land&#45;parent</text>
</g>
<g id="clust6" class="cluster">
<title>clusterC</title>
<polygon fill="none" stroke="#efc050" points="212,-224 212,-299 362,-299 362,-224 212,-224"/>
<text text-anchor="middle" x="287" y="-283.8" font-family="Times,serif" font-size="14.00" fill="#efc050">land&#45;component</text>
</g>
<g id="clust7" class="cluster">
<title>clusterC1</title>
<polygon fill="none" stroke="#efc050" points="212,-8 212,-83 362,-83 362,-8 212,-8"/>
<text text-anchor="middle" x="287" y="-67.8" font-family="Times,serif" font-size="14.00" fill="#efc050">land&#45;component&#45;1</text>
</g>
<g id="clust8" class="cluster">
<title>clusterC2</title>
<polygon fill="none" stroke="#efc050" points="334,-116 334,-191 484,-191 484,-116 334,-116"/>
<text text-anchor="middle" x="409" y="-175.8" font-family="Times,serif" font-size="14.00" fill="#efc050">land&#45;component&#45;2</text>
</g>
<!-- service -->
<g id="node1" class="node">
<title>service</title>
<polygon fill="none" stroke="black" points="74.5,-160 19.5,-160 19.5,-124 74.5,-124 74.5,-160"/>
<text text-anchor="middle" x="47" y="-138.3" font-family="Times,serif" font-size="14.00" fill="#c475db">service</text>
</g>
<!-- biz -->
<g id="node3" class="node">
<title>biz</title>
<polygon fill="none" stroke="black" points="192,-160 138,-160 138,-124 192,-124 192,-160"/>
<text text-anchor="middle" x="165" y="-138.3" font-family="Times,serif" font-size="14.00" fill="#c475db">biz</text>
</g>
<!-- service&#45;&gt;biz -->
<g id="edge2" class="edge">
<title>service&#45;&gt;biz</title>
<path fill="none" stroke="#a69fe0" d="M86.17,-142C103.04,-142 122.35,-142 137.64,-142"/>
<polygon fill="#a69fe0" stroke="#a69fe0" points="86.48,-138.5 76.48,-142 86.48,-145.5 86.48,-138.5"/>
<text text-anchor="middle" x="106.25" y="-148.8" font-family="Times,serif" font-size="14.00">depency</text>
</g>
<!-- landArchetypePom -->
<g id="node2" class="node">
<title>landArchetypePom</title>
<polygon fill="none" stroke="black" points="169,-268 43,-268 43,-232 169,-232 169,-268"/>
<text text-anchor="middle" x="106" y="-246.3" font-family="Times,serif" font-size="14.00" fill="#c475db">land&#45;archetype&#45;pom</text>
</g>
<!-- landArchetypePom&#45;&gt;service -->
<g id="edge1" class="edge">
<title>landArchetypePom&#45;&gt;service</title>
<path fill="none" stroke="#a69fe0" d="M90.93,-221.93C80.15,-202.55 65.95,-177.04 56.65,-160.34"/>
<polygon fill="#a69fe0" stroke="#a69fe0" points="87.86,-223.61 95.78,-230.65 93.98,-220.21 87.86,-223.61"/>
<text text-anchor="middle" x="109" y="-202.8" font-family="Times,serif" font-size="14.00">depency</text>
</g>
<!-- dao -->
<g id="node4" class="node">
<title>dao</title>
<polygon fill="none" stroke="black" points="70,-52 16,-52 16,-16 70,-16 70,-52"/>
<text text-anchor="middle" x="43" y="-30.3" font-family="Times,serif" font-size="14.00" fill="#c475db">dao</text>
</g>
<!-- biz&#45;&gt;dao -->
<g id="edge3" class="edge">
<title>biz&#45;&gt;dao</title>
<path fill="none" stroke="#a69fe0" d="M136.61,-116.33C113.99,-96.68 82.89,-69.66 62.86,-52.26"/>
<polygon fill="#a69fe0" stroke="#a69fe0" points="134.14,-118.82 143.98,-122.74 138.73,-113.54 134.14,-118.82"/>
<text text-anchor="middle" x="146" y="-94.8" font-family="Times,serif" font-size="14.00">depency</text>
</g>
<!-- api -->
<g id="node5" class="node">
<title>api</title>
<polygon fill="none" stroke="black" points="196,-52 142,-52 142,-16 196,-16 196,-52"/>
<text text-anchor="middle" x="169" y="-30.3" font-family="Times,serif" font-size="14.00" fill="#c475db">api</text>
</g>
<!-- dao&#45;&gt;api -->
<g id="edge4" class="edge">
<title>dao&#45;&gt;api</title>
<path fill="none" stroke="#a69fe0" d="M81.59,-34C101.03,-34 124.14,-34 141.71,-34"/>
<polygon fill="#a69fe0" stroke="#a69fe0" points="81.85,-30.5 71.85,-34 81.85,-37.5 81.85,-30.5"/>
<text text-anchor="middle" x="106" y="-40.8" font-family="Times,serif" font-size="14.00">depency</text>
</g>
<!-- springboot -->
<g id="node6" class="node">
<title>springboot</title>
<polygon fill="none" stroke="black" points="291,-466 131,-466 131,-413 291,-413 291,-466"/>
<text text-anchor="start" x="139" y="-450.8" font-family="Times,serif" font-size="14.00" fill="#c475db">org.springframework.boot</text>
<text text-anchor="start" x="139" y="-435.8" font-family="Times,serif" font-size="14.00" fill="#c475db">spring&#45;boot&#45;starter&#45;parent</text>
<text text-anchor="start" x="139" y="-420.8" font-family="Times,serif" font-size="14.00" fill="#c475db">2.7.9</text>
</g>
<!-- landParentPom -->
<g id="node7" class="node">
<title>landParentPom</title>
<polygon fill="none" stroke="black" points="264.5,-376 157.5,-376 157.5,-340 264.5,-340 264.5,-376"/>
<text text-anchor="middle" x="211" y="-354.3" font-family="Times,serif" font-size="14.00" fill="#c475db">land&#45;parent&#45;pom</text>
</g>
<!-- springboot&#45;&gt;landParentPom -->
<g id="edge5" class="edge">
<title>springboot&#45;&gt;landParentPom</title>
<path fill="none" stroke="#a69fe0" d="M211,-401.55C211,-392.72 211,-383.7 211,-376.26"/>
<polygon fill="#a69fe0" stroke="#a69fe0" points="207.5,-401.39 211,-411.39 214.5,-401.39 207.5,-401.39"/>
</g>
<!-- landParentPom&#45;&gt;landArchetypePom -->
<g id="edge6" class="edge">
<title>landParentPom&#45;&gt;landArchetypePom</title>
<path fill="none" stroke="#a69fe0" d="M186.03,-331.79C166.64,-312.22 140.26,-285.58 123.18,-268.34"/>
<polygon fill="#a69fe0" stroke="#a69fe0" points="183.54,-334.25 193.06,-338.89 188.51,-329.33 183.54,-334.25"/>
<text text-anchor="middle" x="193.5" y="-310.8" font-family="Times,serif" font-size="14.00">extend</text>
</g>
<!-- landComponentPom -->
<g id="node8" class="node">
<title>landComponentPom</title>
<polygon fill="none" stroke="black" points="354,-268 220,-268 220,-232 354,-232 354,-268"/>
<text text-anchor="middle" x="287" y="-246.3" font-family="Times,serif" font-size="14.00" fill="#c475db">land&#45;component&#45;pom</text>
</g>
<!-- landParentPom&#45;&gt;landComponentPom -->
<g id="edge7" class="edge">
<title>landParentPom&#45;&gt;landComponentPom</title>
<path fill="none" stroke="#a69fe0" d="M229.83,-330.73C243.79,-311.26 262.43,-285.27 274.57,-268.34"/>
<polygon fill="#a69fe0" stroke="#a69fe0" points="227.08,-328.57 224.09,-338.74 232.76,-332.65 227.08,-328.57"/>
<text text-anchor="middle" x="265.5" y="-310.8" font-family="Times,serif" font-size="14.00">extend</text>
</g>
<!-- landComponent1 -->
<g id="node9" class="node">
<title>landComponent1</title>
<polygon fill="none" stroke="black" points="354,-52 220,-52 220,-16 354,-16 354,-52"/>
<text text-anchor="middle" x="287" y="-30.3" font-family="Times,serif" font-size="14.00" fill="#c475db">land&#45;component&#45;1.jar</text>
</g>
<!-- landComponentPom&#45;&gt;landComponent1 -->
<g id="edge8" class="edge">
<title>landComponentPom&#45;&gt;landComponent1</title>
<path fill="none" stroke="#a69fe0" d="M287,-220.57C287,-175.5 287,-89.01 287,-52.23"/>
<polygon fill="#a69fe0" stroke="#a69fe0" points="283.5,-220.34 287,-230.34 290.5,-220.34 283.5,-220.34"/>
<text text-anchor="middle" x="305.5" y="-138.3" font-family="Times,serif" font-size="14.00">extend</text>
</g>
<!-- landComponent2 -->
<g id="node10" class="node">
<title>landComponent2</title>
<polygon fill="none" stroke="black" points="476,-160 342,-160 342,-124 476,-124 476,-160"/>
<text text-anchor="middle" x="409" y="-138.3" font-family="Times,serif" font-size="14.00" fill="#c475db">land&#45;component&#45;2.jar</text>
</g>
<!-- landComponentPom&#45;&gt;landComponent2 -->
<g id="edge9" class="edge">
<title>landComponentPom&#45;&gt;landComponent2</title>
<path fill="none" stroke="#a69fe0" d="M315.39,-224.33C338.01,-204.68 369.11,-177.66 389.14,-160.26"/>
<polygon fill="#a69fe0" stroke="#a69fe0" points="313.27,-221.54 308.02,-230.74 317.86,-226.82 313.27,-221.54"/>
<text text-anchor="middle" x="362.5" y="-202.8" font-family="Times,serif" font-size="14.00">extend</text>
</g>
</g>
</svg>
